<svg xmlns="http://www.w3.org/2000/svg" xmlns:xlink="http://www.w3.org/1999/xlink" id="Capa_1" x="0px" y="0px" viewBox="0 0 141.73 141.73" style="enable-background:new 0 0 141.73 141.73;" xml:space="preserve"><style type="text/css">	.st0{fill:#151A2E;}</style><g>	<path class="st0" d="M123.56,118.55c-0.56,0.72-1.31,0.88-2.2,0.88c-32.51-0.02-65.02-0.01-97.53-0.01c-0.2,0-0.4,0.01-0.6,0  c-1.04-0.06-1.68-0.71-1.65-1.71c0.02-0.95,0.64-1.59,1.66-1.6c2.59-0.02,5.18-0.04,7.76,0.01c0.86,0.02,1.16-0.23,1.14-1.12  c-0.05-3.02-0.04-6.04,0-9.06c0.01-0.83-0.27-1.12-1.09-1.07c-1.06,0.06-2.12,0.02-3.18,0.01c-3.31-0.04-6.09-2.7-6.29-6.02  c-0.08-1.33,0.07-2.63,0.47-3.92c2.19-7.06,4.34-14.13,6.52-21.19c0.16-0.51,0.35-1,0.55-1.49c0.89-2.12,2.57-3.04,4.8-3.03  c2.22,0.01,3.86,1.04,4.63,3.12c0.8,2.14,1.43,4.34,2.1,6.53c1.7,5.51,3.4,11.02,5.08,16.54c0.88,2.89,0.43,5.51-1.71,7.73  c-1.11,1.16-2.52,1.69-4.11,1.73c-1.16,0.03-2.32,0.03-3.48,0c-0.6-0.01-0.83,0.24-0.83,0.83c0.01,3.18,0.01,6.37,0,9.55  c0,0.57,0.19,0.85,0.81,0.84c3.02-0.05,2.41,0.38,2.47-2.35c0.03-1.33-0.01-2.65,0.01-3.98c0.02-1.11,0.7-1.83,1.68-1.82  c0.97,0.01,1.63,0.73,1.64,1.86c0.02,1.79,0.03,3.58,0,5.37c-0.01,0.7,0.25,0.93,0.93,0.92c1.82-0.03,3.65-0.03,5.47,0  c0.64,0.01,0.93-0.23,0.88-0.87c-0.01-0.16,0-0.33,0-0.5c-0.02-16.29,0.04-32.58-0.09-48.87c-0.06-7.93-0.08-15.85-0.13-23.78  c0-0.46-0.04-0.93,0.11-1.38c0.27-0.83,0.81-1.26,1.7-1.24c0.89,0.02,1.42,0.53,1.61,1.35c0.1,0.41,0.07,0.86,0.07,1.29  c0.01,10.45-0.09,20.9,0.05,31.35c0.18,13.8,0.11,27.6,0.14,41.4c0,1.03,0.32,1.33,1.31,1.26c1.16-0.08,2.32-0.06,3.48-0.01  c0.8,0.04,1.2-0.2,1.09-1.05c-0.04-0.29-0.01-0.6-0.01-0.89c0-25.11,0-50.23,0-75.34c0-0.4-0.02-0.8,0.02-1.19  c0.1-1,0.84-1.73,1.73-1.72c0.84,0.01,1.58,0.71,1.7,1.66c0.06,0.42,0.03,0.86,0.03,1.29c0,25.18,0,50.36,0,75.54  c0,0.36,0.01,0.73,0.01,1.09c0,0.41,0.21,0.6,0.62,0.6c1.59,0,3.18,0,4.78,0c0.46,0,0.66-0.22,0.65-0.67c-0.01-0.33,0-0.66,0-1  c0-26.37,0-52.75,0-79.12c0-0.43-0.03-0.87,0.02-1.29c0.11-0.89,0.62-1.48,1.53-1.57c0.92-0.09,1.5,0.39,1.79,1.25  c0.18,0.55,0.13,1.12,0.13,1.68c0,26.24,0,52.48,0,78.72c0,0.33,0.03,0.67,0,0.99c-0.08,0.8,0.29,1.03,1.05,1.01  c2.65-0.07,2.3,0.34,2.3-2.24c0.01-18.64,0-37.29,0.01-55.93c0-0.53,0-1.06,0.08-1.59c0.31-2.09,1.67-3.3,3.8-3.33  c2.72-0.03,5.44-0.03,8.16,0c0.82,0.01,1.09-0.27,1.09-1.09c-0.02-8.92,0-17.85-0.02-26.77c-0.01-3.28-2.69-5.17-5.77-4.06  C70.15,25.54,57.81,30,45.46,34.47c-2.34,0.85-3.25,2.28-3.25,5.01c-0.01,8.86,0,17.72,0,26.57c0,0.36,0.02,0.73-0.03,1.09  c-0.1,0.82-0.85,1.45-1.65,1.44c-0.81-0.01-1.52-0.65-1.63-1.47c-0.03-0.23-0.02-0.46-0.02-0.7c0-9.26-0.01-18.51,0.01-27.77  c0.01-3.46,1.94-6.16,5.22-7.35c11.57-4.18,23.14-8.35,34.71-12.52c1.25-0.45,2.49-0.9,3.74-1.35c1.06,0,2.12,0,3.19,0  c4.25,1.47,6.03,3.98,6.03,8.5c0,8.59,0,17.19,0,25.78c0,1.3,0,1.31,1.32,1.31c7.3,0,14.6,0,21.9,0c3.22,0,4.46,1.24,4.46,4.44  c0,19.14,0.01,38.29-0.02,57.43c0,0.95,0.26,1.3,1.23,1.23c1.04-0.07,2.16-0.22,2.89,0.85  C123.56,117.49,123.56,118.02,123.56,118.55z M78.64,86.31c0,3.88,0,7.76,0,11.64c0,5.67,0.02,11.34-0.02,17.01  c0,0.85,0.21,1.19,1.11,1.15c1.49-0.07,2.99-0.07,4.48,0c0.9,0.04,1.16-0.31,1.11-1.16c-0.06-1.06-0.01-2.12-0.01-3.18  c0-3.95-0.02-7.89,0.01-11.84c0.02-2.36,1.4-3.93,3.45-3.94c5.74-0.02,11.47-0.01,17.21,0c1.68,0,3.06,1.2,3.31,2.86  c0.09,0.62,0.13,1.25,0.13,1.88c0.01,4.74,0.02,9.48-0.01,14.23c-0.01,0.86,0.25,1.18,1.14,1.15c1.46-0.06,2.92-0.07,4.38,0  c0.98,0.05,1.22-0.3,1.22-1.24c-0.02-19-0.02-38.01-0.02-57.01c0-1.36,0-1.36-1.39-1.36c-11.57,0-23.15,0-34.72,0  c-1.37,0-1.37,0-1.37,1.36C78.64,67.34,78.64,76.83,78.64,86.31z M33.8,101.39c1.96,0,3.92-0.03,5.87,0.01  c1.31,0.03,2.11-0.65,2.64-1.75c0.57-1.18,0.41-2.37,0.03-3.58c-2.12-6.91-4.22-13.82-6.34-20.72c-0.19-0.63-0.4-1.27-0.7-1.86  c-0.59-1.14-2.29-1.17-2.94-0.05c-0.23,0.39-0.38,0.85-0.51,1.29c-1.7,5.51-3.4,11.02-5.06,16.54c-0.62,2.06-1.42,4.08-1.78,6.21  c-0.38,2.26,1.05,3.9,3.32,3.91C30.15,101.4,31.97,101.39,33.8,101.39z M95.63,107.69c0-2.48-0.01-4.97,0.01-7.45  c0.01-0.67-0.19-0.96-0.9-0.94c-1.65,0.04-3.31,0.04-4.97,0c-0.72-0.01-1,0.24-1,0.98c0.02,4.97,0.02,9.93,0,14.9  c0,0.68,0.22,0.94,0.92,0.93c1.62-0.04,3.25-0.05,4.87,0c0.81,0.03,1.11-0.23,1.09-1.07C95.61,112.59,95.63,110.14,95.63,107.69z   M105.97,107.71c0-2.48-0.01-4.97,0.01-7.45c0.01-0.67-0.22-0.96-0.92-0.95c-1.69,0.03-3.38,0.03-5.07,0  c-0.73-0.02-0.89,0.32-0.88,0.96c0.01,4.97,0.02,9.93,0,14.9c0,0.77,0.32,0.95,1.01,0.94c1.59-0.04,3.18-0.06,4.77,0.01  c0.91,0.04,1.12-0.32,1.1-1.16C105.94,112.54,105.97,110.12,105.97,107.71z"></path>	<path class="st0" d="M77.91,38.44c0-2.85,0-5.7,0-8.55c0-1.28,0.54-1.94,1.58-1.98c1.09-0.05,1.69,0.49,1.79,1.78  c0.09,1.05,0.06,2.12,0.07,3.18c0.01,4.34,0.01,8.68,0,13.02c0,0.5-0.02,0.99-0.09,1.48c-0.15,1.1-0.78,1.66-1.76,1.62  c-0.94-0.04-1.57-0.73-1.58-1.8c-0.02-1.95-0.01-3.91-0.01-5.86C77.91,40.36,77.91,39.4,77.91,38.44z"></path>	<path class="st0" d="M111.68,66.7c0,1.29,0.01,2.59,0,3.88c-0.01,1.38-0.63,2.04-1.99,2.05c-2.58,0.02-5.17,0.02-7.75,0  c-1.3-0.01-2.03-0.63-2.06-1.92c-0.06-2.65-0.06-5.3,0-7.95c0.03-1.32,0.77-1.96,2.13-1.97c2.52-0.02,5.04-0.02,7.56,0  c1.48,0.01,2.11,0.68,2.12,2.14C111.69,64.18,111.68,65.44,111.68,66.7z M103.32,66.61c0,2.53,0,2.55,2.57,2.53  c2.66-0.02,2.31,0.38,2.32-2.29c0.02-2.57,0-2.57-2.54-2.57C103.32,64.27,103.32,64.27,103.32,66.61z"></path>	<path class="st0" d="M111.68,83.51c0,1.26,0.01,2.52,0,3.78c-0.02,1.23-0.64,1.98-1.85,2c-2.68,0.05-5.37,0.05-8.05,0  c-1.2-0.02-1.87-0.68-1.9-1.88c-0.06-2.68-0.06-5.37,0-8.05c0.03-1.28,0.77-1.87,2.08-1.88c2.55-0.01,5.1-0.01,7.65,0  c1.45,0.01,2.05,0.61,2.07,2.05C111.69,80.86,111.68,82.19,111.68,83.51z M105.74,85.84c2.48,0,2.48,0,2.48-2.44  c0-0.03,0-0.07,0-0.1c-0.04-2.71,0.34-2.33-2.39-2.35c-2.51-0.02-2.51,0-2.51,2.51C103.32,85.84,103.32,85.84,105.74,85.84z"></path>	<path class="st0" d="M94.76,66.76c0,1.33,0.01,2.65,0,3.98c-0.02,1.22-0.62,1.86-1.83,1.88c-2.65,0.03-5.3,0.03-7.96,0  c-1.26-0.01-1.88-0.66-1.89-1.93c-0.02-2.65-0.01-5.3,0-7.96c0.01-1.25,0.62-1.92,1.89-1.94c2.62-0.04,5.24-0.04,7.86,0  c1.33,0.02,1.92,0.67,1.93,1.99C94.77,64.11,94.76,65.43,94.76,66.76z M88.89,69.14c2.55,0,2.55,0,2.55-2.35  c0-2.52,0-2.52-2.57-2.52c-2.46,0-2.46,0-2.46,2.44C86.42,69.14,86.42,69.14,88.89,69.14z"></path>	<path class="st0" d="M94.76,83.35c0,1.33,0.01,2.65,0,3.98c-0.01,1.22-0.57,1.93-1.76,1.95c-2.72,0.06-5.44,0.06-8.15,0  c-1.19-0.03-1.76-0.74-1.76-1.96c-0.01-2.62-0.01-5.24,0-7.85c0.01-1.38,0.62-1.98,2.02-1.98c2.55-0.01,5.1-0.01,7.66,0  c1.42,0.01,1.99,0.59,2,1.99C94.77,80.77,94.76,82.06,94.76,83.35z M88.9,85.84c0.56,0,1.13-0.03,1.69,0.01  c0.65,0.04,0.88-0.25,0.86-0.88c-0.03-1.02-0.04-2.05,0-3.08c0.02-0.67-0.21-0.99-0.91-0.95c-0.59,0.03-1.19,0-1.79,0  c-2.34,0-2.34,0-2.34,2.38C86.42,85.84,86.42,85.84,88.9,85.84z"></path></g></svg>