<svg xmlns="http://www.w3.org/2000/svg" xmlns:xlink="http://www.w3.org/1999/xlink" id="Capa_1" x="0px" y="0px" viewBox="0 0 141.73 141.73" style="enable-background:new 0 0 141.73 141.73;" xml:space="preserve"><style type="text/css">	.st0{fill:#151A2E;}</style><g>	<path class="st0" d="M102.12,106.9c-0.63-0.25-1.02-0.18-1.41-0.18c-19.18,0-38.35,0-57.53-0.01c-4.45,0-8.1-2.74-9.09-6.77  c-0.21-0.85-0.27-1.72-0.27-2.6c0.01-18.35,0.01-36.7,0-55.05c0-0.36,0.1-0.75-0.16-1.23c-0.8,0.77-1.57,1.49-2.33,2.22  c-0.57,0.55-1.23,0.98-2.07,0.96c-1.68-0.04-2.72-1.82-1.91-3.24c0.17-0.3,0.42-0.57,0.67-0.82c2-1.94,4.01-3.88,6.03-5.81  c1.48-1.41,2.66-1.41,4.15,0.01c2.08,1.99,4.15,3.99,6.22,6c0.69,0.67,0.97,1.48,0.63,2.4c-0.3,0.82-0.93,1.27-1.8,1.42  c-0.89,0.15-1.6-0.21-2.19-0.8c-0.78-0.77-1.53-1.57-2.26-2.33c-0.47,0.28-0.34,0.57-0.34,0.81c-0.01,18.67-0.01,37.34,0,56.01  c0,2.54,1.88,4.35,4.52,4.35c19.39,0.01,38.78,0.01,58.16,0c0.23,0,0.47-0.03,0.94-0.06c-0.93-0.9-1.73-1.67-2.52-2.44  c-0.59-0.58-1.03-1.24-0.88-2.1c0.27-1.55,1.98-2.33,3.41-1.56c0.31,0.17,0.59,0.4,0.85,0.65c2.02,1.93,4.03,3.86,6.03,5.81  c1.43,1.39,1.42,2.53-0.02,3.93c-2.07,2-4.15,4-6.22,5.99c-0.7,0.68-1.55,0.92-2.49,0.64c-0.84-0.25-1.36-0.86-1.53-1.69  c-0.18-0.86,0.21-1.54,0.81-2.12C100.35,108.52,101.19,107.77,102.12,106.9z"></path>	<path class="st0" d="M76.75,33.38c8.07,0,16.15,0,24.22,0c5.1,0,9.03,3.78,9.03,8.68c0,15.78,0,31.57,0,47.35  c0,1.32-0.61,2.11-1.8,2.38c-0.95,0.22-2.02-0.3-2.49-1.2c-0.25-0.47-0.2-0.96-0.2-1.46c0-15.38,0-30.75,0-46.13  c0-0.82-0.05-1.63-0.35-2.41c-0.72-1.87-2.36-2.89-4.7-2.9c-4.05-0.02-8.1-0.01-12.16-0.01c-12.07,0-24.13,0-36.2,0  c-0.45,0-0.9,0.05-1.35-0.12c-0.99-0.36-1.64-1.41-1.46-2.36c0.22-1.12,1.07-1.83,2.3-1.83c4.45-0.01,8.89-0.01,13.34-0.01  C68.89,33.38,72.82,33.38,76.75,33.38z"></path>	<path class="st0" d="M51.45,71.81c0-4.43-0.01-8.85,0-13.28c0-1.62,1.04-2.56,2.61-2.41c0.83,0.08,1.41,0.54,1.74,1.24  c0.23,0.47,0.47,0.48,0.92,0.31c3.23-1.21,6.17-0.66,8.79,1.48c0.44,0.36,0.68,0.35,1.12-0.02c2.43-2.01,5.22-2.63,8.28-1.64  c3.1,1.01,4.91,3.17,5.61,6.22c0.06,0.28,0.08,0.58,0.08,0.87c0.01,6.9,0.01,13.81,0.01,20.71c0,1.17-0.59,1.94-1.64,2.23  c-0.95,0.26-1.97-0.13-2.52-0.94c-0.32-0.47-0.32-0.99-0.32-1.51c0-6.35,0-12.7,0-19.05c0-0.5-0.02-0.98-0.13-1.47  c-0.43-1.95-2.12-3.21-4.12-3.06c-1.96,0.15-3.45,1.71-3.46,3.72C68.39,71.59,68.4,78,68.4,84.41c0,0.5-0.01,0.99-0.14,1.47  c-0.29,1.1-1.3,1.83-2.41,1.71c-1.15-0.12-1.98-0.96-2.06-2.09c-0.02-0.29-0.01-0.58-0.01-0.87c0-6.38-0.01-12.76,0-19.14  c0-1.56-0.63-2.78-2.04-3.56c-2.51-1.38-5.64,0.35-5.66,3.15c-0.03,6.5-0.01,12.99-0.02,19.49c0,0.44,0.01,0.87-0.11,1.3  c-0.3,1.05-1.28,1.8-2.31,1.74c-1.16-0.07-2.08-0.93-2.19-2.09c-0.03-0.29-0.01-0.58-0.02-0.87  C51.45,80.37,51.45,76.09,51.45,71.81z"></path>	<path class="st0" d="M91.45,62.57c1.09,0,1.93-0.01,2.76,0c1.47,0.02,2.47,0.86,2.53,2.09c0.06,1.29-0.89,2.3-2.38,2.33  c-2.3,0.06-4.6,0.06-6.89,0c-1.23-0.03-2.21-0.57-2.7-1.74c-0.47-1.12-0.2-2.12,0.62-2.98c2.05-2.14,4.11-4.27,6.17-6.4  c0.77-0.8,0.94-1.58,0.47-2.36c-0.44-0.72-1.12-1.06-1.99-0.93c-0.99,0.15-1.51,0.79-1.66,1.91c-0.17,1.34-1.14,2.2-2.41,2.13  c-1.25-0.06-2.21-1.08-2.21-2.34c0.02-3.34,3.2-6.32,6.69-6.16c2.65,0.12,4.68,1.32,5.82,3.69c1.1,2.3,0.8,4.5-0.79,6.49  c-0.79,0.99-1.76,1.84-2.64,2.76C92.45,61.5,92.06,61.93,91.45,62.57z"></path></g></svg>