<svg xmlns="http://www.w3.org/2000/svg" xmlns:xlink="http://www.w3.org/1999/xlink" id="Capa_1" x="0px" y="0px" viewBox="0 0 141.73 141.73" style="enable-background:new 0 0 141.73 141.73;" xml:space="preserve"><style type="text/css">	.st0{fill:#151A2E;}</style><g>	<path class="st0" d="M69.7,116.94c-15.4,0-30.8,0-46.2,0c-2.02,0-2.38-0.37-2.38-2.4c0-1.76-0.01-3.52,0-5.29  c0.01-1.29,0.56-1.83,1.86-1.84c0.65-0.01,1.31-0.04,1.96,0.01c0.7,0.05,0.95-0.26,0.89-0.92c-0.03-0.29,0-0.59,0-0.88  c0-27.83,0-55.66,0-83.49c0-2.08,0.35-2.43,2.45-2.43c12.04,0,24.08,0,36.12,0c1.89,0,2.29,0.4,2.3,2.29  c0,4.08,0.03,8.16-0.02,12.23c-0.01,0.92,0.28,1.2,1.17,1.15c1.24-0.07,2.48-0.08,3.72,0c0.97,0.06,1.3-0.22,1.28-1.24  c-0.06-4.11-0.03-8.22-0.02-12.33c0-1.63,0.47-2.11,2.09-2.11c12.2,0,24.41,0,36.61,0c1.73,0,2.17,0.45,2.17,2.22  c0,27.99,0,55.99,0,83.98c0,1.51,0,1.51,1.55,1.51c3.07,0,3.14,0.07,3.14,3.11c0,1.37,0,2.74,0,4.11c0,1.9-0.4,2.31-2.28,2.31  c-12.4,0-24.8,0-37.19,0C75.83,116.94,72.77,116.94,69.7,116.94z M29.08,65.07c0,13.51,0,27.02,0,40.53c0,2.03-0.25,1.74,1.85,1.82  c0.91,0.03,1.17-0.26,1.16-1.16c-0.04-5.16-0.02-10.31-0.02-15.47c0-1.75,0.44-2.19,2.2-2.19c7.93,0,15.86,0,23.79,0  c1.95,0,2.34,0.39,2.34,2.35c0,5.12,0,10.25,0.01,15.37c0,0.34-0.16,0.85,0.24,0.97c0.78,0.24,1.65,0.24,2.41,0.03  c0.64-0.18,0.33-0.91,0.33-1.39c0.01-27.21,0.01-54.43,0.01-81.64c0-1.34,0-1.34-1.34-1.34c-10.54,0-21.08,0-31.62,0  c-1.37,0-1.37,0-1.37,1.4C29.08,37.93,29.08,51.5,29.08,65.07z M110.4,65.27c0-13.64,0-27.28,0-40.92c0-1.4,0-1.41-1.37-1.41  c-10.51,0-21.01,0-31.52,0c-1.44,0-1.44,0-1.44,1.44c0,27.08,0,54.17,0,81.25c0,1.98-0.23,1.71,1.79,1.79  c0.92,0.03,1.24-0.23,1.23-1.19c-0.04-5.16-0.02-10.31-0.02-15.47c0-1.7,0.45-2.15,2.14-2.15c7.99,0,15.99,0,23.98,0  c1.76,0,2.21,0.44,2.21,2.18c0,5.16,0,10.31,0.01,15.47c0,0.35-0.16,0.86,0.19,1c0.8,0.31,1.69,0.25,2.49,0.05  c0.55-0.14,0.3-0.79,0.3-1.21C110.4,92.49,110.4,78.88,110.4,65.27z M69.73,110.67c-14.61,0-29.23,0-43.84,0  c-0.29,0-0.59,0-0.88,0.01c-0.2,0-0.47,0.01-0.51,0.2c-0.21,0.83-0.25,1.71-0.01,2.5c0.17,0.55,0.87,0.28,1.32,0.28  c29.29,0.01,58.58,0.01,87.87,0.01c0.13,0,0.26-0.02,0.39,0c0.84,0.12,1.12-0.29,1.02-1.07c-0.02-0.19,0-0.39,0-0.59  c0-1.34,0-1.34-1.34-1.34C99.09,110.67,84.41,110.67,69.73,110.67z M104.14,99.62c0-2.28-0.02-4.56,0.01-6.84  c0.01-0.66-0.2-0.93-0.89-0.92c-2.48,0.03-4.95,0.03-7.43,0c-0.72-0.01-0.97,0.22-0.96,0.95c0.03,4.56,0.02,9.12,0,13.68  c0,0.66,0.2,0.93,0.89,0.92c2.48-0.03,4.95-0.03,7.43,0c0.72,0.01,0.98-0.22,0.96-0.95C104.11,104.18,104.14,101.9,104.14,99.62z   M91.6,99.63c0-2.25-0.02-4.5,0.01-6.74c0.01-0.75-0.2-1.04-0.99-1.03c-2.44,0.04-4.89,0.04-7.33,0c-0.71-0.01-0.97,0.21-0.97,0.95  c0.03,4.56,0.03,9.12,0,13.68c0,0.76,0.31,0.93,0.99,0.92c2.44-0.03,4.89-0.03,7.33,0c0.71,0.01,0.98-0.21,0.97-0.95  C91.58,104.19,91.6,101.91,91.6,99.63z M57.14,99.67c0-2.28-0.02-4.56,0.01-6.84c0.01-0.71-0.21-0.98-0.95-0.97  c-2.44,0.04-4.89,0.04-7.33,0c-0.76-0.01-1.02,0.23-1.01,1c0.03,4.53,0.03,9.06,0,13.58c0,0.71,0.21,0.98,0.95,0.97  c2.44-0.04,4.89-0.04,7.33,0c0.76,0.01,1.03-0.23,1.01-1C57.12,104.17,57.14,101.92,57.14,99.67z M35.35,99.59  c0,2.25,0.03,4.5-0.01,6.74c-0.01,0.77,0.18,1.11,1.03,1.09c2.41-0.05,4.82-0.04,7.23,0c0.74,0.01,1.04-0.18,1.03-0.98  c-0.03-4.53-0.03-9.06,0-13.58c0.01-0.8-0.29-1-1.03-0.99c-2.41,0.04-4.82,0.04-7.23,0c-0.85-0.02-1.05,0.31-1.03,1.09  C35.38,95.16,35.35,97.37,35.35,99.59z M66.68,65.18c0,2.25,0.02,4.49-0.01,6.74c-0.01,0.74,0.18,1.06,0.99,1.03  c1.4-0.06,2.8-0.04,4.2,0c0.71,0.02,0.97-0.21,0.97-0.94c-0.03-4.56-0.03-9.12,0-13.68c0-0.75-0.29-0.95-0.99-0.93  c-1.37,0.04-2.74,0.05-4.1,0c-0.8-0.03-1.09,0.22-1.07,1.05C66.71,60.69,66.68,62.94,66.68,65.18z M72.81,84.01  c0-2.28-0.02-4.56,0.01-6.84c0.01-0.7-0.19-1-0.94-0.98c-1.43,0.05-2.87,0.04-4.3,0c-0.67-0.02-0.92,0.21-0.92,0.9  c0.02,4.59,0.02,9.18,0,13.77c0,0.71,0.29,0.89,0.94,0.88c1.4-0.03,2.8-0.04,4.2,0c0.76,0.03,1.04-0.21,1.02-1  C72.78,88.51,72.81,86.26,72.81,84.01z M66.68,46.39c0,2.25,0.02,4.49-0.01,6.74c-0.01,0.74,0.18,1.06,0.99,1.03  c1.4-0.06,2.8-0.04,4.2,0c0.71,0.02,0.97-0.21,0.97-0.95c-0.03-4.56-0.03-9.12,0-13.68c0-0.76-0.29-0.95-0.99-0.93  c-1.37,0.04-2.74,0.05-4.1,0c-0.8-0.03-1.09,0.22-1.07,1.05C66.71,41.89,66.68,44.14,66.68,46.39z M72.81,101.21  c0-1.76-0.02-3.52,0.01-5.27c0.01-0.64-0.16-0.96-0.87-0.94c-1.46,0.04-2.93,0.03-4.39,0c-0.61-0.01-0.88,0.18-0.88,0.83  c0.02,3.58,0.02,7.16,0,10.74c0,0.65,0.26,0.85,0.87,0.84c1.43-0.03,2.87-0.05,4.3,0.01c0.81,0.03,1-0.3,0.98-1.04  C72.78,104.66,72.81,102.93,72.81,101.21z"></path>	<path class="st0" d="M38.32,82.47c-1.44,0-2.87,0.01-4.31,0c-1.37-0.01-1.92-0.53-1.92-1.88c-0.01-1.93-0.01-3.85,0-5.78  c0.01-1.35,0.55-1.87,1.92-1.88c2.94-0.01,5.87-0.01,8.81,0c1.37,0,1.92,0.53,1.93,1.87c0.01,1.93,0.01,3.85,0,5.78  c-0.01,1.34-0.55,1.87-1.92,1.88C41.32,82.48,39.82,82.47,38.32,82.47z M38.42,76.21c-0.36,0-0.71-0.01-1.07,0  c-2.26,0.04-1.94-0.35-2.01,2.03c-0.02,0.81,0.3,1.01,1.03,0.98c1-0.05,2.01,0.01,3.02-0.01c2.37-0.05,2.06,0.49,2.1-2.22  c0.01-0.61-0.27-0.79-0.83-0.78C39.91,76.23,39.16,76.21,38.42,76.21z"></path>	<path class="st0" d="M38.39,35.48c-1.5,0-3,0.01-4.5,0c-1.24-0.01-1.79-0.57-1.8-1.8c-0.01-1.99-0.02-3.98,0-5.97  c0.01-1.17,0.58-1.74,1.75-1.75c3.07-0.01,6.14-0.02,9.2,0c1.11,0.01,1.69,0.59,1.7,1.7c0.02,2.06,0.02,4.11,0,6.17  c-0.01,1.05-0.6,1.63-1.65,1.65C41.52,35.5,39.96,35.48,38.39,35.48z M38.4,32.21c0.32,0,0.65,0.01,0.97,0  c2.38-0.06,2.07,0.47,2.11-2.22c0.01-0.6-0.25-0.8-0.82-0.79c-1.07,0.02-2.14,0.01-3.21,0.01c-2.33,0-2.31,0-2.11,2.31  c0.04,0.5,0.24,0.69,0.72,0.68C36.84,32.2,37.62,32.21,38.4,32.21z"></path>	<path class="st0" d="M38.46,57.28c1.47,0,2.94-0.01,4.41,0c1.31,0.01,1.87,0.55,1.88,1.83c0.01,1.96,0.01,3.92,0,5.87  c-0.01,1.28-0.57,1.82-1.87,1.83c-2.97,0.01-5.94,0.01-8.91,0c-1.31,0-1.87-0.55-1.87-1.83c-0.01-1.96-0.01-3.92,0-5.87  c0.01-1.28,0.56-1.82,1.87-1.83C35.46,57.27,36.96,57.28,38.46,57.28z M38.32,63.54c0.36,0,0.71,0.01,1.07,0  c2.37-0.05,2.05,0.42,2.1-2.13c0.01-0.71-0.29-0.89-0.93-0.87c-1.04,0.03-2.08-0.01-3.12,0.01c-2.37,0.05-2.06-0.49-2.1,2.23  c-0.01,0.61,0.27,0.79,0.83,0.77C36.89,63.52,37.6,63.54,38.32,63.54z"></path>	<path class="st0" d="M54.08,66.81c-1.47,0-2.94,0.01-4.41,0c-1.37-0.01-1.91-0.53-1.92-1.88c-0.01-1.93-0.01-3.85,0-5.78  c0.01-1.34,0.55-1.87,1.93-1.87c2.94-0.01,5.87-0.01,8.81,0c1.37,0,1.92,0.53,1.92,1.88c0.01,1.93,0.01,3.85,0,5.78  c-0.01,1.34-0.55,1.87-1.93,1.88C57.01,66.82,55.55,66.81,54.08,66.81z M54.08,60.54c-0.32,0-0.65-0.01-0.97,0  c-2.37,0.05-2.05-0.42-2.1,2.13c-0.01,0.71,0.29,0.9,0.93,0.87c1.04-0.03,2.08,0.01,3.12-0.01c2.37-0.05,2.06,0.49,2.1-2.23  c0.01-0.61-0.27-0.79-0.83-0.77C55.57,60.56,54.82,60.55,54.08,60.54z"></path>	<path class="st0" d="M54.05,35.48c-1.5,0-3,0.01-4.5,0c-1.23-0.01-1.79-0.57-1.8-1.81c-0.01-1.99-0.02-3.98,0-5.97  c0.01-1.16,0.59-1.74,1.75-1.75c3.03-0.01,6.07-0.01,9.1,0c1.23,0.01,1.79,0.57,1.8,1.8c0.01,1.99,0.02,3.98,0,5.97  c-0.01,1.16-0.59,1.73-1.76,1.75C57.12,35.49,55.58,35.48,54.05,35.48z M54.05,32.21C54.05,32.21,54.05,32.21,54.05,32.21  c0.36,0,0.71,0.01,1.07,0c2.29-0.05,2,0.45,2.03-2.2c0.01-0.58-0.21-0.82-0.8-0.8c-1.07,0.03-2.14,0.01-3.21,0.01  c-2.33,0-2.31,0-2.13,2.3c0.04,0.49,0.21,0.71,0.7,0.7C52.49,32.2,53.27,32.21,54.05,32.21z"></path>	<path class="st0" d="M38.41,41.61c1.47,0,2.94-0.01,4.41,0c1.37,0.01,1.92,0.53,1.93,1.87c0.01,1.93,0.01,3.85,0,5.78  c-0.01,1.34-0.55,1.87-1.92,1.88c-2.94,0.01-5.87,0.01-8.81,0c-1.37,0-1.92-0.53-1.93-1.88c-0.01-1.93-0.01-3.85,0-5.78  c0.01-1.35,0.55-1.87,1.92-1.88C35.47,41.6,36.94,41.61,38.41,41.61z M38.42,44.88c-0.32,0-0.65-0.01-0.97,0  c-2.38,0.06-2.07-0.48-2.11,2.22c-0.01,0.6,0.25,0.79,0.82,0.78c1.07-0.02,2.14-0.01,3.21-0.01c2.32,0,2.31,0,2.11-2.32  c-0.04-0.5-0.25-0.69-0.73-0.68C39.98,44.89,39.2,44.88,38.42,44.88z"></path>	<path class="st0" d="M54.08,82.47c-1.47,0-2.94,0.01-4.41,0c-1.37-0.01-1.91-0.53-1.92-1.88c-0.01-1.93-0.01-3.85,0-5.78  c0.01-1.31,0.55-1.87,1.83-1.87c3-0.01,6-0.01,9.01,0c1.28,0.01,1.82,0.56,1.83,1.88c0.01,1.93,0.01,3.85,0,5.78  c-0.01,1.34-0.55,1.87-1.93,1.88C57.01,82.48,55.54,82.47,54.08,82.47z M54.15,76.21c-0.81,0-1.62,0.01-2.43,0  c-0.49-0.01-0.72,0.2-0.7,0.7c0.02,0.55,0.01,1.1,0,1.66c0,0.38,0.13,0.64,0.55,0.64c1.69,0,3.38,0,5.06-0.01  c0.31,0,0.44-0.19,0.5-0.48c0.43-1.97,0.03-2.5-1.91-2.5C54.87,76.21,54.51,76.21,54.15,76.21z"></path>	<path class="st0" d="M54.08,51.15c-1.47,0-2.94,0.01-4.41,0c-1.37-0.01-1.92-0.53-1.92-1.88c-0.01-1.93-0.01-3.85,0-5.78  c0.01-1.35,0.55-1.87,1.92-1.88c2.94-0.01,5.87-0.01,8.81,0c1.37,0,1.92,0.53,1.93,1.88c0.01,1.93,0.01,3.85,0,5.78  c-0.01,1.34-0.55,1.87-1.92,1.88C57.02,51.15,55.55,51.15,54.08,51.15z M54.02,47.88C54.02,47.88,54.02,47.87,54.02,47.88  c0.81,0,1.62,0,2.43,0c0.3,0,0.64-0.03,0.66-0.41c0.03-0.71,0.03-1.43,0-2.14c-0.01-0.38-0.33-0.44-0.64-0.44  c-1.59,0-3.18,0-4.77,0c-0.3,0-0.64,0.03-0.66,0.41c-0.04,0.77-0.26,1.63,0.09,2.3c0.31,0.6,1.13,0.2,1.71,0.27  C53.24,47.91,53.63,47.88,54.02,47.88z"></path>	<path class="st0" d="M85.5,25.95c1.44,0,2.87-0.01,4.31,0c1.38,0.01,1.92,0.53,1.93,1.87c0.01,1.93,0.01,3.85,0,5.78  c-0.01,1.31-0.55,1.87-1.83,1.88c-3,0.01-6,0.01-9.01,0c-1.24,0-1.82-0.56-1.83-1.77c-0.02-1.99-0.02-3.98,0-5.97  c0.01-1.22,0.58-1.77,1.82-1.78C82.43,25.94,83.97,25.95,85.5,25.95z M85.35,32.21C85.35,32.21,85.35,32.21,85.35,32.21  c0.81,0,1.62,0,2.43,0c0.3,0,0.64-0.03,0.66-0.41c0.03-0.71,0.03-1.43,0-2.14c-0.01-0.38-0.33-0.44-0.64-0.44  c-1.59,0-3.18,0-4.77,0c-0.3,0-0.64,0.03-0.66,0.41c-0.04,0.77-0.26,1.63,0.09,2.3c0.31,0.6,1.13,0.2,1.71,0.27  C84.56,32.25,84.96,32.21,85.35,32.21z"></path>	<path class="st0" d="M85.31,51.15c-1.44,0-2.87,0.01-4.31,0c-1.38-0.01-1.92-0.53-1.93-1.87c-0.01-1.93-0.01-3.85,0-5.78  c0.01-1.31,0.54-1.87,1.82-1.88c3-0.01,6-0.01,9.01,0c1.24,0,1.82,0.56,1.83,1.77c0.02,1.99,0.02,3.98,0,5.97  c-0.01,1.22-0.58,1.77-1.82,1.78C88.38,51.16,86.85,51.14,85.31,51.15z M85.41,44.88c-0.32,0-0.65-0.01-0.97,0  c-2.37,0.05-2.05-0.42-2.1,2.13c-0.01,0.71,0.29,0.9,0.93,0.87c1.04-0.03,2.08,0.01,3.12-0.01c2.37-0.05,2.06,0.49,2.1-2.23  c0.01-0.61-0.27-0.79-0.83-0.77C86.9,44.9,86.15,44.88,85.41,44.88z"></path>	<path class="st0" d="M101.03,51.15c-1.47,0-2.94,0.01-4.41,0c-1.35-0.01-1.88-0.55-1.88-1.92c-0.01-1.93-0.01-3.85,0-5.78  c0.01-1.25,0.56-1.83,1.77-1.83c3.03-0.01,6.07-0.01,9.1,0c1.19,0.01,1.77,0.56,1.78,1.72c0.02,2.02,0.02,4.05,0,6.07  c-0.01,1.16-0.59,1.72-1.77,1.74C104.1,51.16,102.56,51.14,101.03,51.15z M101.12,44.88c-0.36,0-0.71-0.01-1.07,0  c-2.31,0.04-2-0.39-2.05,2.09c-0.01,0.66,0.19,0.95,0.89,0.92c1.07-0.04,2.14,0,3.21-0.01c2.31-0.04,2,0.39,2.04-2.09  c0.01-0.66-0.19-0.96-0.89-0.92C102.55,44.91,101.83,44.88,101.12,44.88z"></path>	<path class="st0" d="M101.02,35.48c-1.5,0-3,0.01-4.5,0c-1.18-0.01-1.76-0.57-1.77-1.73c-0.02-2.02-0.02-4.05,0-6.07  c0.01-1.16,0.59-1.72,1.78-1.72c3.03-0.01,6.07-0.01,9.1,0c1.21,0.01,1.77,0.58,1.77,1.83c0.01,1.96,0.01,3.92,0,5.87  c-0.01,1.28-0.57,1.81-1.88,1.82C104.02,35.49,102.52,35.48,101.02,35.48z M101.14,29.22c-0.81,0-1.62,0.01-2.43,0  c-0.49-0.01-0.71,0.21-0.7,0.7c0.02,0.58,0,1.17,0.01,1.75c0,0.36,0.2,0.54,0.55,0.54c1.66,0,3.31,0,4.97,0  c0.34,0,0.52-0.14,0.6-0.5c0.42-1.98,0.03-2.49-1.92-2.49C101.85,29.22,101.5,29.22,101.14,29.22z"></path>	<path class="st0" d="M101.07,82.47c-1.47,0-2.94,0.01-4.41,0c-1.37-0.01-1.92-0.53-1.92-1.88c-0.01-1.93-0.01-3.85,0-5.78  c0.01-1.34,0.55-1.87,1.92-1.87c2.94-0.01,5.87-0.01,8.81,0c1.37,0,1.92,0.53,1.92,1.88c0.01,1.93,0.01,3.85,0,5.78  c-0.01,1.34-0.55,1.87-1.93,1.88C104.01,82.48,102.54,82.47,101.07,82.47z M101.01,79.21C101.01,79.2,101.01,79.2,101.01,79.21  c0.81,0,1.62,0,2.43,0c0.3,0,0.64-0.03,0.66-0.41c0.03-0.71,0.03-1.43,0-2.14c-0.01-0.38-0.33-0.44-0.64-0.44  c-1.59,0-3.18,0-4.77,0c-0.3,0-0.64,0.03-0.66,0.41c-0.04,0.77-0.26,1.63,0.09,2.3c0.31,0.6,1.13,0.2,1.71,0.27  C100.23,79.24,100.62,79.21,101.01,79.21z"></path>	<path class="st0" d="M85.45,72.94c1.47,0,2.94-0.01,4.41,0c1.35,0.01,1.88,0.55,1.88,1.92c0.01,1.93,0.01,3.85,0,5.78  c-0.01,1.24-0.56,1.83-1.77,1.83c-3.03,0.01-6.07,0.01-9.1,0c-1.19-0.01-1.77-0.56-1.78-1.72c-0.02-2.02-0.02-4.05,0-6.07  c0.01-1.16,0.59-1.72,1.77-1.73C82.38,72.93,83.91,72.94,85.45,72.94z M85.39,79.21c0.32,0,0.65,0.01,0.97,0  c2.39-0.06,2.07,0.48,2.11-2.21c0.01-0.6-0.24-0.8-0.82-0.79c-1.07,0.02-2.14,0.01-3.21,0.01c-2.33,0-2.31,0-2.11,2.31  c0.04,0.5,0.24,0.69,0.72,0.68C83.84,79.19,84.61,79.2,85.39,79.21z"></path>	<path class="st0" d="M85.38,66.81c-1.5,0-3,0.01-4.5,0c-1.23-0.01-1.79-0.57-1.8-1.8c-0.01-1.99-0.02-3.98,0-5.97  c0.01-1.16,0.58-1.74,1.75-1.75c3.07-0.01,6.14-0.02,9.2,0c1.11,0.01,1.69,0.59,1.7,1.7c0.02,2.06,0.02,4.11,0,6.17  c-0.01,1.05-0.6,1.63-1.65,1.65C88.51,66.83,86.95,66.81,85.38,66.81z M85.39,63.54c0.32,0,0.65,0.01,0.97,0  c2.39-0.06,2.07,0.48,2.11-2.21c0.01-0.6-0.25-0.8-0.82-0.79c-1.07,0.02-2.14,0.01-3.21,0.01c-2.33,0-2.32,0-2.11,2.31  c0.04,0.5,0.24,0.69,0.72,0.68C83.84,63.53,84.62,63.54,85.39,63.54z"></path>	<path class="st0" d="M101.03,66.81c-1.47,0-2.94,0.01-4.41,0c-1.31-0.01-1.87-0.54-1.88-1.82c-0.01-1.96-0.01-3.92,0-5.87  c0.01-1.28,0.56-1.83,1.87-1.83c2.97-0.01,5.94-0.01,8.91,0c1.32,0,1.87,0.54,1.88,1.82c0.01,1.96,0.01,3.92,0,5.87  c-0.01,1.28-0.57,1.82-1.87,1.83C104.03,66.82,102.53,66.81,101.03,66.81z M100.97,63.54c0.36,0,0.71,0.01,1.07,0  c2.37-0.05,2.05,0.42,2.1-2.13c0.01-0.71-0.29-0.9-0.93-0.87c-1.04,0.03-2.08-0.01-3.12,0.01c-2.37,0.05-2.06-0.49-2.1,2.22  c-0.01,0.61,0.27,0.79,0.83,0.77C99.55,63.52,100.26,63.54,100.97,63.54z"></path></g></svg>