<svg xmlns="http://www.w3.org/2000/svg" xmlns:xlink="http://www.w3.org/1999/xlink" id="Capa_1" x="0px" y="0px" viewBox="0 0 141.73 141.73" style="enable-background:new 0 0 141.73 141.73;" xml:space="preserve"><style type="text/css">	.st0{fill:#151A2E;}</style><g>	<path class="st0" d="M66.06,108.6c-15.23,0-30.47,0-45.7,0c-0.46,0-0.91,0.02-1.37-0.01c-0.98-0.06-1.65-0.77-1.63-1.69  c0.02-0.91,0.72-1.63,1.69-1.64c2.49-0.02,4.97-0.03,7.46,0.01c0.71,0.01,0.96-0.16,0.96-0.92c-0.03-8.37-0.03-16.74,0-25.11  c0-0.79-0.28-0.92-0.97-0.9c-1.29,0.05-2.59,0.02-3.89,0c-1.45-0.02-2.16-0.98-1.76-2.37c2.7-9.27,5.41-18.54,8.13-27.8  c0.43-1.45,0.86-1.74,2.42-1.74c17.33,0,34.67-0.01,52,0.02c0.96,0,1.26-0.23,1.21-1.21c-0.08-1.78-0.03-3.57-0.02-5.36  c0.01-1.24,0.63-1.86,1.88-1.86c3.22-0.01,6.44-0.01,9.67,0c1.28,0,1.89,0.65,1.9,1.96c0.01,1.82,0.04,3.64-0.01,5.46  c-0.02,0.76,0.15,1.02,0.97,1.01c2.77-0.06,5.53-0.02,8.3-0.02c1.9,0,2.19,0.22,2.72,2.04c1.95,6.63,3.91,13.26,5.85,19.9  c0.74,2.53,1.48,5.07,2.21,7.6c0.41,1.42-0.28,2.36-1.74,2.38c-1.37,0.02-2.73,0.03-4.1,0c-0.6-0.02-0.77,0.2-0.77,0.78  c0.02,8.47,0.02,16.95,0.01,25.42c0,0.55,0.16,0.77,0.71,0.71c0.38-0.04,0.77-0.03,1.15,0.01c0.88,0.1,1.53,0.86,1.5,1.72  c-0.02,0.83-0.66,1.51-1.52,1.59c-0.45,0.04-0.91,0.02-1.36,0.02C96.67,108.6,81.37,108.6,66.06,108.6z M69.54,49.77  c-12.15,0-24.3,0.01-36.45-0.02c-0.75,0-1.05,0.19-1.27,0.96c-2.25,7.78-4.56,15.55-6.88,23.32c-0.23,0.77-0.15,0.99,0.73,0.98  c9.07-0.03,18.14-0.02,27.21,0c0.61,0,1.05-0.2,1.49-0.59c4.49-4.01,8.99-8.01,13.49-12.01c1.36-1.21,1.86-1.23,3.23-0.01  c4.42,3.93,8.84,7.86,13.25,11.8c0.46,0.41,0.88,0.82,1.62,0.82c9.17-0.02,18.35-0.02,27.52,0c0.75,0,0.75-0.19,0.56-0.83  c-2.31-7.78-4.6-15.56-6.85-23.36c-0.24-0.83-0.54-1.08-1.41-1.08C93.7,49.78,81.62,49.77,69.54,49.77z M82.92,91.28  C82.92,91.28,82.93,91.28,82.92,91.28c0-4.34,0-8.68,0.01-13.03c0-0.52-0.1-0.91-0.52-1.28c-4.12-3.63-8.24-7.28-12.32-10.96  c-0.53-0.48-0.81-0.39-1.28,0.02c-3.91,3.5-7.82,7.01-11.78,10.46c-0.78,0.69-1.11,1.4-1.05,2.43c0.08,1.5,0.02,3.01,0.02,4.52  c0,6.9,0.02,13.8-0.03,20.7c-0.01,0.96,0.26,1.18,1.17,1.13c1.54-0.08,3.08-0.07,4.62,0c0.81,0.03,0.99-0.23,0.98-1.01  c-0.04-4.55-0.02-9.1-0.02-13.66c0-1.59,0.56-2.16,2.12-2.16c3.05,0,6.09,0,9.14,0c1.62,0,2.19,0.58,2.19,2.21  c0,4.55,0.01,9.11-0.01,13.66c0,0.69,0.12,0.99,0.9,0.96c1.64-0.07,3.29-0.06,4.94,0c0.77,0.03,0.92-0.25,0.92-0.96  C82.91,99.96,82.92,95.62,82.92,91.28z M30.81,91.78c0,4.2,0.01,8.4-0.01,12.6c0,0.67,0.16,0.89,0.87,0.89  c6.72-0.03,13.44-0.03,20.15,0c0.72,0,0.86-0.25,0.86-0.91c-0.02-8.36-0.02-16.73,0-25.09c0-0.74-0.2-0.94-0.94-0.93  c-6.65,0.02-13.3,0.03-19.94-0.01c-0.87-0.01-1.02,0.29-1.01,1.07C30.83,83.52,30.81,87.65,30.81,91.78z M108.14,91.91  c0-4.2-0.02-8.4,0.02-12.6c0.01-0.8-0.22-0.98-1-0.98c-6.65,0.03-13.3,0.02-19.94,0c-0.7,0-0.96,0.16-0.96,0.92  c0.03,8.36,0.03,16.72,0,25.09c0,0.74,0.21,0.93,0.94,0.92c6.65-0.03,13.3-0.03,19.94,0.01c0.88,0.01,1.02-0.3,1.01-1.08  C108.12,100.1,108.14,96,108.14,91.91z M72.84,98.52c0-1.96-0.02-3.91,0.01-5.87c0.01-0.6-0.1-0.88-0.79-0.87  c-1.75,0.04-3.49,0.03-5.24,0c-0.54-0.01-0.72,0.16-0.72,0.72c0.02,4.02,0.02,8.04,0,12.05c0,0.56,0.18,0.71,0.72,0.7  c1.71-0.03,3.42-0.04,5.14,0c0.68,0.02,0.91-0.18,0.89-0.88C72.81,102.43,72.84,100.48,72.84,98.52z M91.05,46.42  c1.06,0,1.93-0.03,2.8,0.01c0.6,0.03,0.89-0.12,0.86-0.8c-0.05-1.18-0.04-2.37-0.01-3.56c0.02-0.56-0.19-0.72-0.72-0.71  c-1.4,0.03-2.79,0.01-4.19,0.01c-1.83,0-1.84,0-1.82,1.78c0.01,1.04-0.35,2.42,0.17,3.03C88.74,46.89,90.17,46.32,91.05,46.42z"></path>	<path class="st0" d="M43.04,41.37c-1.89,0-3.78,0.01-5.67,0c-3.27-0.03-6.18-2.63-6.53-5.82c-0.38-3.43,1.75-6.61,4.99-7.4  c0.55-0.13,0.99-0.32,1.36-0.82c3.13-4.25,9.54-3.49,11.61,1.39c0.28,0.65,0.61,0.96,1.29,1.14c2.82,0.75,4.67,3.57,4.24,6.51  c-0.45,3.11-3.36,5.15-5.82,5.03C46.68,41.3,44.86,41.37,43.04,41.37z M42.89,38.01c1.75,0,3.5,0.01,5.25,0  c1.67-0.01,2.9-1.13,2.84-2.57c-0.06-1.52-1.36-2.54-3.06-2.41c-1.15,0.09-1.86-0.5-1.97-1.64c-0.18-1.96-1.16-3.11-2.93-3.44  c-1.35-0.25-2.79,0.6-3.55,2.19c-0.38,0.78-0.9,1.15-1.79,1.16c-2.05,0.02-3.51,1.46-3.5,3.38c0,1.87,1.54,3.3,3.58,3.32  C39.47,38.02,41.18,38.01,42.89,38.01z"></path>	<path class="st0" d="M119.1,105.26c0.35,0,0.71-0.05,1.05,0.01c0.91,0.17,1.39,0.76,1.42,1.67c0.03,0.84-0.6,1.56-1.45,1.64  c-0.59,0.05-1.19,0.03-1.78,0.02c-1.07-0.03-1.78-0.69-1.8-1.63c-0.02-0.99,0.72-1.69,1.83-1.71c0.24-0.01,0.49,0,0.73,0  C119.1,105.26,119.1,105.26,119.1,105.26z"></path>	<path class="st0" d="M76.19,78.41c0.01,3.65-3.01,6.66-6.67,6.66c-3.76,0-6.76-2.96-6.77-6.67c-0.01-3.8,2.96-6.76,6.78-6.76  C73.22,71.64,76.19,74.65,76.19,78.41z M66.11,78.31c-0.03,1.77,1.5,3.35,3.3,3.41c1.78,0.05,3.36-1.46,3.43-3.27  c0.07-1.8-1.52-3.43-3.35-3.45C67.69,74.98,66.14,76.5,66.11,78.31z"></path>	<path class="st0" d="M41.72,98.52c-2.41,0-4.83,0.01-7.24,0c-1.35-0.01-1.97-0.63-1.98-1.98c-0.01-2.06-0.01-4.13,0-6.19  c0.01-1.23,0.65-1.89,1.86-1.89c4.93-0.01,9.86-0.01,14.8,0c1.16,0,1.81,0.65,1.82,1.83c0.02,2.13,0.02,4.27,0,6.4  c-0.01,1.18-0.63,1.82-1.8,1.83C46.69,98.53,44.2,98.51,41.72,98.52C41.72,98.51,41.72,98.51,41.72,98.52z M41.76,91.8  C41.76,91.79,41.76,91.79,41.76,91.8c-1.15,0-2.31,0-3.46,0c-2.5,0-2.47,0-2.46,2.53c0,0.71,0.24,0.86,0.9,0.85  c2.79-0.03,5.59-0.01,8.38-0.01c2.67,0,2.64,0,2.52-2.69c-0.03-0.58-0.24-0.69-0.75-0.69C45.18,91.81,43.47,91.8,41.76,91.8z"></path>	<path class="st0" d="M97.18,98.52c-2.41,0-4.83,0.01-7.24,0c-1.35-0.01-1.97-0.63-1.97-1.99c-0.01-2.06-0.01-4.13,0-6.19  c0.01-1.23,0.65-1.89,1.86-1.89c4.9-0.01,9.8-0.01,14.69,0c1.29,0,1.92,0.64,1.93,1.94c0.01,2.06,0.01,4.13-0.01,6.19  c-0.01,1.32-0.61,1.93-1.92,1.93C102.08,98.52,99.63,98.51,97.18,98.52C97.18,98.51,97.18,98.51,97.18,98.52z M97.2,91.79  c-1.12,0-2.24,0-3.35,0c-2.59,0-2.57,0-2.54,2.56c0.01,0.64,0.17,0.83,0.82,0.83c2.83-0.04,5.66-0.01,8.49-0.01  c2.58,0,2.56,0,2.49-2.61c-0.01-0.6-0.19-0.78-0.78-0.77C100.62,91.81,98.91,91.79,97.2,91.79z"></path></g></svg>